<?xml version="1.0" encoding="utf-8"?>
<!-- Generator: Adobe Illustrator 19.2.1, SVG Export Plug-In . SVG Version: 6.00 Build 0)  -->
<svg version="1.1" id="Layer_1" xmlns="http://www.w3.org/2000/svg" xmlns:xlink="http://www.w3.org/1999/xlink" x="0px" y="0px"
	 viewBox="0 0 187 164" style="enable-background:new 0 0 187 164;" xml:space="preserve">
<style type="text/css">
	.st0{display:none;}
	.st1{display:inline;fill:#D6D5D5;}
	.st2{display:inline;fill:#EDDDA0;}
	.st3{display:inline;fill:#FFFFFF;}
	.st4{display:inline;fill:#566F32;}
	.st5{display:inline;}
	.st6{fill:#FFFFFF;}
	.st7{fill:#010101;}
	.st8{display:inline;fill:#E5D1BF;}
	.st9{display:inline;fill:#82654D;}
	.st10{fill:#D6D5D5;}
	.st11{fill:#731D39;}
	.st12{fill:#3E1321;}
	.st13{fill:#E5D1BF;}
	.st14{fill:#82654D;}
</style>
<g id="Layer_3" class="st0">
	<path class="st1" d="M93.6,65.7c17.5,33.6-13.8,49.9-13.8,49.9s-31.4-14.5-14.1-49.9H93.6z"/>
	<path class="st1" d="M79.7,154.8L79.7,154.8c-0.9,0-1.5-0.7-1.5-1.5v-38.6c0-0.9,0.7-1.5,1.5-1.5l0,0c0.9,0,1.5,0.7,1.5,1.5v38.6
		C81.2,154.1,80.5,154.8,79.7,154.8z"/>
	<path class="st1" d="M62.3,154.3V154c0-0.8,0.6-1.4,1.4-1.4h32c0.8,0,1.4,0.6,1.4,1.4v0.3c0,0.8-0.6,1.4-1.4,1.4h-32
		C62.9,155.7,62.3,155.1,62.3,154.3z"/>
	<path class="st2" d="M60.6,82.6c-2.1,23.2,19.2,33.1,19.2,33.1s20.8-10.8,19-33.1H60.6z"/>
	<path class="st3" d="M66.2,78c0-2.9,0.2-5.7,0.4-8.5c-2.1,4.1-3.4,9.3-3.4,15c0,9.2,3.4,17.3,8.4,21.5C68.3,98.3,66.2,88.6,66.2,78
		z"/>
	<path class="st4" d="M126.6,40.6c0-7.2,0-28.8,0-28.8c0-2-1.6-3.6-3.6-3.6h-1.2h-1.7h-0.7c-2,0-3.6,1.6-3.6,3.6c0,0,0,21.6,0,28.8
		c0,6.3-11.9,10.7-11.9,27c0,21.1,0,84.6,0,84.6c0,2,1.6,3.6,3.6,3.6h9.9h7.6h9.9c2,0,3.6-1.6,3.6-3.6c0,0,0-63.4,0-84.6
		C138.5,51.3,126.6,47,126.6,40.6z"/>
	<path class="st4" d="M126.2,21.6h-9.9c-0.8,0-1.4-0.6-1.4-1.4v-6.4c0-0.8,0.6-1.4,1.4-1.4h9.9c0.8,0,1.4,0.6,1.4,1.4v6.4
		C127.7,21,127,21.6,126.2,21.6z"/>
	<g class="st5">
		<path class="st6" d="M112.3,148.1c0,0,0-59.7,0-79.6c0-15,6.7-19.2,7-24.9c-0.8,5.6-10.9,10-10.9,24.7c0,19.9,0,79.6,0,79.6
			c0,2.7,0.7,3.4,3.3,3.4h2C112.6,150.8,112.3,149.9,112.3,148.1z"/>
	</g>
	<g class="st5">
		<path class="st7" d="M130.7,148.1c0,0,0-59.7,0-79.6c0-15-6.7-19.2-7-24.9c0.8,5.6,10.9,10,10.9,24.7c0,19.9,0,79.6,0,79.6
			c0,2.7-0.7,3.4-3.3,3.4h-2C130.4,150.8,130.7,149.9,130.7,148.1z"/>
	</g>
	<path class="st8" d="M138.5,79.6h-15.6c-0.9,0-1.6,0.7-1.6,1.6v23c0,0.9,0.7,1.6,1.6,1.6h15.6C138.5,96.6,138.5,87.3,138.5,79.6z"
		/>
	<path class="st9" d="M134.7,105.9c0-9.3,0-18.6,0-26.3h-3.9c0,7.7,0,17,0,26.3C130.8,105.9,134.7,105.9,134.7,105.9z"/>
</g>
<g id="Layer_2">
	<path class="st10" d="M93.7,65.8c17.5,33.7-13.8,50-13.8,50s-31.5-14.6-14.2-50H93.7z"/>
	<path class="st10" d="M79.8,155.2L79.8,155.2c-0.9,0-1.5-0.7-1.5-1.5V115c0-0.9,0.7-1.5,1.5-1.5l0,0c0.9,0,1.5,0.7,1.5,1.5v38.6
		C81.3,154.5,80.6,155.2,79.8,155.2z"/>
	<path class="st10" d="M62.3,154.6v-0.3c0-0.8,0.6-1.4,1.4-1.4h32.1c0.8,0,1.4,0.6,1.4,1.4v0.3c0,0.8-0.6,1.4-1.4,1.4H63.7
		C62.9,156,62.3,155.4,62.3,154.6z"/>
	<path class="st11" d="M60.7,82.7c-2.1,23.3,19.2,33.1,19.2,33.1s20.8-10.9,19-33.1H60.7z"/>
	<path class="st6" d="M66.3,78.1c0-2.9,0.2-5.8,0.4-8.5c-2.1,4.2-3.4,9.4-3.4,15c0,9.3,3.4,17.3,8.4,21.5
		C68.3,98.5,66.3,88.8,66.3,78.1z"/>
	<path class="st12" d="M126.8,40.7c0-7.2,0-28.9,0-28.9c0-2-1.6-3.6-3.6-3.6H122h-1.7h-0.7c-2,0-3.6,1.6-3.6,3.6c0,0,0,21.7,0,28.9
		c0,6.3-11.9,10.7-11.9,27.1c0,21.2,0,84.7,0,84.7c0,2,1.6,3.6,3.6,3.6h9.9h7.6h9.9c2,0,3.6-1.6,3.6-3.6c0,0,0-63.5,0-84.7
		C138.7,51.4,126.8,47,126.8,40.7z"/>
	<path class="st12" d="M126.4,21.6h-9.9c-0.8,0-1.4-0.6-1.4-1.4v-6.4c0-0.8,0.6-1.4,1.4-1.4h9.9c0.8,0,1.4,0.6,1.4,1.4v6.4
		C127.8,21,127.2,21.6,126.4,21.6z"/>
	<g>
		<path class="st6" d="M112.4,148.4c0,0,0-59.8,0-79.7c0-15.1,6.7-19.2,7-25c-0.8,5.6-10.9,10-10.9,24.8c0,19.9,0,79.7,0,79.7
			c0,2.7,0.7,3.4,3.3,3.4h2C112.8,151.1,112.4,150.2,112.4,148.4z"/>
	</g>
	<g>
		<path class="st7" d="M130.9,148.4c0,0,0-59.8,0-79.7c0-15.1-6.7-19.2-7-25c0.8,5.6,10.9,10,10.9,24.8c0,19.9,0,79.7,0,79.7
			c0,2.7-0.7,3.4-3.3,3.4h-2C130.6,151.1,130.9,150.2,130.9,148.4z"/>
	</g>
	<path class="st13" d="M138.7,79.8h-15.6c-0.9,0-1.7,0.7-1.7,1.7v23.1c0,0.9,0.7,1.7,1.7,1.7h15.6C138.7,96.8,138.7,87.5,138.7,79.8
		z"/>
	<path class="st14" d="M134.9,106.1c0-9.3,0-18.7,0-26.4h-4c0,7.7,0,17,0,26.4H134.9z"/>
</g>
</svg>
